<?xml version="1.0" standalone="no"?>
<!DOCTYPE svg PUBLIC "-//W3C//DTD SVG 20010904//EN"
 "http://www.w3.org/TR/2001/REC-SVG-20010904/DTD/svg10.dtd">
<svg version="1.0" xmlns="http://www.w3.org/2000/svg"
 width="256.000000pt" height="256.000000pt" viewBox="0 0 256.000000 256.000000"
 preserveAspectRatio="xMidYMid meet">

<g transform="translate(0.000000,256.000000) scale(0.100000,-0.100000)"
fill="#000000" stroke="none">
<path d="M1012 2183 c-41 -20 -66 -53 -125 -165 -61 -115 -70 -130 -86 -150
-13 -16 -39 -18 -288 -18 l-274 0 -24 -24 c-14 -14 -26 -41 -30 -67 -3 -24 -5
-324 -3 -667 l3 -624 33 -29 33 -29 1055 2 1056 3 24 28 24 29 -2 669 -3 670
-25 19 c-23 18 -47 20 -304 22 l-278 3 -72 132 c-75 138 -103 175 -148 199
-43 22 -520 20 -566 -3z m530 -120 c18 -22 68 -112 68 -124 0 -5 -142 -9 -316
-9 l-316 0 37 68 c21 37 42 70 49 74 6 4 113 8 237 8 203 0 227 -2 241 -17z
m-130 -327 c227 -41 419 -222 478 -452 38 -147 21 -290 -50 -431 -73 -142
-190 -243 -352 -301 -64 -23 -88 -26 -193 -25 -105 0 -129 3 -195 28 -368 135
-522 543 -332 885 78 141 246 263 407 294 91 18 142 18 237 2z"/>
<path d="M1145 1621 c-87 -31 -137 -62 -198 -120 -330 -315 -108 -873 348
-875 202 0 375 108 462 291 133 277 -13 613 -305 703 -85 26 -236 27 -307 1z
m216 -232 c57 -17 109 -66 135 -126 32 -71 30 -95 -10 -175 -38 -77 -178 -298
-187 -298 -6 0 -63 87 -170 260 -46 74 -56 129 -36 192 36 117 154 181 268
147z"/>
<path d="M1237 1256 c-33 -31 -43 -68 -27 -107 40 -96 180 -71 180 33 0 83
-94 128 -153 74z"/>
<path d="M527 2013 c-9 -2 -24 -17 -32 -33 -10 -19 -24 -30 -42 -32 -22 -2
-29 -9 -31 -30 l-3 -28 150 0 c139 0 151 1 151 18 0 25 -19 42 -47 42 -13 0
-23 5 -23 10 0 6 -11 22 -25 35 -23 24 -54 30 -98 18z"/>
</g>
</svg>
